<?xml version="1.0" encoding="UTF-8"?>
<svg id="Layer_1" data-name="Layer 1" xmlns="http://www.w3.org/2000/svg" width="154.03" height="41.96" xmlns:xlink="http://www.w3.org/1999/xlink" viewBox="0 0 154.03 41.96">
  <defs>
    <style>
      .cls-1 {
        fill: #fff;
      }

      .cls-2 {
        mask: url(#mask);
      }

      .cls-3 {
        fill: none;
      }

      .cls-4 {
        fill: #202020;
      }

      .cls-5 {
        fill: #ff5a16;
      }

      .cls-6 {
        clip-path: url(#clippath);
      }
    </style>
    <clipPath id="clippath">
      <rect class="cls-3" width="154.03" height="41.96"/>
    </clipPath>
    <mask id="mask" x="0" y="0" width="154.03" height="41.91" maskUnits="userSpaceOnUse">
      <g id="mask0_1_194" data-name="mask0 1 194">
        <path class="cls-1" d="M154.03,0H0v41.91h154.03V0Z"/>
      </g>
    </mask>
  </defs>
  <g class="cls-6">
    <g class="cls-2">
      <g>
        <path class="cls-1" d="M72.29,41.64c-2.63,0-5.4-1.4-7.8-3.79-.09.16-.19.31-.29.46-1.01,1.52-2.96,3.33-6.52,3.33-2.43,0-5.71-.94-7.52-5.44-1.21-3.01-1.78-7.63-1.78-14.53,0-6.06.7-10.88,2.08-14.35.8-2.01,1.84-3.59,3.11-4.72,1.48-1.32,3.29-2.02,5.23-2.02,2.56,0,4.75,1.15,6.17,3.25.22.32.42.66.59,1.02,2.83-2.84,5.72-4.27,8.62-4.27,3.82,0,6.29,2.64,6.29,6.72,0,2.31-1.07,4.98-3.18,7.95-1.22,1.71-2.73,3.47-4.45,5.16,3.16,4.77,6.07,10.71,6.07,14.45,0,1.81-.68,3.51-1.91,4.78-1.25,1.29-2.92,2-4.71,2h0Z"/>
        <path class="cls-1" d="M77.28,7.31c0-1.94-.78-3.54-3.11-3.54-2.52,0-6.26,1.8-10.82,9.17.15-.87.19-1.7.19-2.47,0-3.98-1.65-6.7-4.76-6.7-4.71,0-7.23,6.65-7.23,17.91,0,13.2,2.09,16.79,6.11,16.79,3.4,0,5.14-2.33,5.34-8.3,2.43,5.29,6.36,8.3,9.27,8.3,1.89,0,3.45-1.55,3.45-3.59,0-3.01-3.06-9.46-7.09-14.9,4.61-4.03,8.64-9.22,8.64-12.67h0Z"/>
        <path class="cls-1" d="M145.22,17.31c-4.78,0-8.66-3.95-8.66-8.8,0-2.32.88-4.47,2.49-6.05C140.65.87,142.85,0,145.22,0s4.61.87,6.24,2.44c1.66,1.6,2.57,3.77,2.57,6.12,0,4.82-3.95,8.75-8.81,8.75Z"/>
        <path class="cls-1" d="M145.22,14.13c3.11,0,5.63-2.52,5.63-5.57s-2.38-5.38-5.63-5.38-5.48,2.33-5.48,5.33,2.43,5.62,5.48,5.62Z"/>
        <path class="cls-1" d="M144.59,41.91c-3.13,0-5.69-1.56-7.21-4.38-1.24-2.3-1.84-5.49-1.84-9.75s.61-7.44,1.85-9.74c1.55-2.86,4.17-4.43,7.4-4.43s5.55,1.39,7.03,4.02c1.25,2.22,1.83,5.32,1.83,9.77s-.59,7.71-1.8,10.04c-1.5,2.88-4.08,4.47-7.25,4.47Z"/>
        <path class="cls-1" d="M144.79,16.79c-4.17,0-6.07,3.71-6.07,10.99s1.94,10.94,5.87,10.94,5.87-3.57,5.87-11.32-1.89-10.61-5.68-10.61h0Z"/>
        <path class="cls-1" d="M124.89,41.91c-3.2,0-5.45-1.45-6.68-4.31-.79-1.83-1.2-4.29-1.35-8.2-1.03-.44-1.88-1-2.58-1.7-1.32-1.34-1.99-3.09-1.99-5.19,0-2.24.64-4.07,1.91-5.44.69-.75,1.54-1.34,2.58-1.8.18-4.5,1.61-8.28,4.14-10.98C123.52,1.52,127.22,0,131.35,0,134.3,0,136.87.8,138.77,2.3c2.02,1.6,3.13,3.85,3.13,6.35,0,3.32-1.74,5.95-4.56,7.29,1.75,1.14,3.1,3.01,3.1,6.12,0,2.8-.97,4.95-2.88,6.39-1.11.84-2.5,1.41-4.34,1.78-.24,3.39-.75,5.75-1.6,7.49-1.34,2.73-3.67,4.17-6.74,4.17Z"/>
        <path class="cls-1" d="M138.72,8.65c0-3-2.67-5.47-7.38-5.47-6.41,0-11.4,4.38-11.4,13.09v1.33c-3.11.62-4.47,2.05-4.47,4.9,0,2.47,1.36,3.9,4.51,4.52.1,9.23,1.31,11.71,4.9,11.71s5.05-2.62,5.29-11.28c5.14-.43,7.09-1.86,7.09-5.38,0-3.14-1.94-4.43-7.09-4.81-.05-1.71-.05-2.95-.1-3.85.78.19,1.8.33,2.67.33,3.69,0,5.97-2.05,5.97-5.09h0Z"/>
        <path class="cls-1" d="M87.48,41.64c-4.29,0-8.22-1.81-11.07-5.1-2.73-3.16-4.24-7.44-4.24-12.06s1.5-8.73,4.23-11.7c2.79-3.05,6.73-4.73,11.09-4.73s8.3,1.66,11.08,4.66c2.77,3,4.24,7.07,4.24,11.77s-1.51,8.9-4.24,12.06c-2.85,3.29-6.78,5.1-11.07,5.1h0Z"/>
        <path class="cls-1" d="M87.48,11.24c-7.13,0-12.13,5.44-12.13,13.25s5.19,13.98,12.13,13.98,12.13-6.02,12.13-13.98-5-13.25-12.13-13.25ZM86.94,27.45c-1.5,0-2.62-1.36-2.62-3.01,0-1.5,1.12-2.72,2.62-2.72s2.57,1.21,2.57,2.72c0,1.65-1.12,3.01-2.57,3.01Z"/>
        <path class="cls-1" d="M106.92,30c-2.77,0-4.76-.52-6.27-1.64-1.85-1.37-2.78-3.49-2.78-6.3,0-3.29,1.48-5.1,2.72-6.04,1.61-1.22,3.76-1.8,6.77-1.8s5.23.53,6.86,1.67c1.36.95,2.97,2.81,2.97,6.32s-1.72,5.38-3.15,6.29c-1.65,1.04-3.84,1.5-7.11,1.5h0Z"/>
        <path class="cls-1" d="M107.36,17.4c-4.51,0-6.31,1.5-6.31,4.66,0,3.64,2.04,4.76,5.87,4.76,5,0,7.08-1.16,7.08-4.61s-2.09-4.8-6.65-4.8h0Z"/>
        <path class="cls-1" d="M20.11,41.3c-7.32,0-13.28-3.27-16.77-9.22C.25,26.86,0,21.22,0,14.91c0-3.74,1.13-7,3.25-9.42,1.95-2.22,4.72-3.66,7.8-4.06,3.65-.46,8.19-.5,12.91-.5,7.68,0,9.85.09,12.87.4,4.02.4,7.4,1.9,9.78,4.34,2.41,2.48,3.69,5.79,3.69,9.57v.76c0,6.46-4.32,11.87-10.34,13.34-.45,1.06-1.01,2.12-1.66,3.15l-.02.03c-2.12,3.28-7.11,8.78-16.65,8.78h-1.52,0Z"/>
        <path class="cls-1" d="M36.52,4.49c-2.85-.28-4.85-.38-12.55-.38-4.95,0-9.13.05-12.51.48-4.47.57-8.28,3.99-8.28,10.32s.33,11.22,2.9,15.55c2.9,4.95,7.75,7.66,14.03,7.66h1.52c7.7,0,11.89-4.09,13.98-7.32.9-1.43,1.57-2.85,2-4.28,5.47-.48,9.51-4.99,9.51-10.51v-.76c0-5.94-3.9-10.08-10.61-10.75h0Z"/>
        <path class="cls-1" d="M142.73,12.2h-7.19v5.09h7.19v-5.09Z"/>
        <path class="cls-4" d="M139.74,8.51c0,3.09,2.43,5.62,5.48,5.62s5.63-2.52,5.63-5.57-2.38-5.38-5.63-5.38-5.48,2.33-5.48,5.33ZM138.72,27.78c0,7.38,1.94,10.94,5.87,10.94s5.87-3.57,5.87-11.32-1.89-10.61-5.68-10.61c-4.17,0-6.07,3.71-6.07,10.99M115.48,22.5c0,2.47,1.36,3.9,4.51,4.52.1,9.23,1.31,11.71,4.9,11.71s5.05-2.62,5.29-11.28c5.14-.43,7.08-1.86,7.08-5.38,0-3.14-1.94-4.43-7.08-4.81-.05-1.71-.05-2.95-.1-3.85.78.19,1.8.33,2.67.33,3.69,0,5.97-2.05,5.97-5.09s-2.67-5.47-7.38-5.47c-6.41,0-11.4,4.38-11.4,13.09v1.33c-3.11.62-4.47,2.05-4.47,4.9M101.05,22.06c0,3.64,2.04,4.76,5.87,4.76,5,0,7.08-1.16,7.08-4.61s-2.09-4.8-6.65-4.8-6.31,1.5-6.31,4.66M84.32,24.44c0-1.5,1.12-2.72,2.62-2.72s2.57,1.21,2.57,2.72c0,1.65-1.12,3.01-2.57,3.01s-2.62-1.36-2.62-3.01ZM75.34,24.49c0,7.96,5.19,13.98,12.13,13.98s12.13-6.02,12.13-13.98-5-13.25-12.13-13.25-12.13,5.44-12.13,13.25ZM58.8,3.76c-4.71,0-7.23,6.65-7.23,17.91,0,13.2,2.09,16.79,6.11,16.79,3.4,0,5.14-2.33,5.34-8.3,2.43,5.29,6.36,8.3,9.27,8.3,1.89,0,3.45-1.55,3.45-3.59,0-3.01-3.06-9.46-7.09-14.9,4.61-4.03,8.64-9.22,8.64-12.67,0-1.94-.78-3.54-3.11-3.54-2.52,0-6.26,1.8-10.82,9.17.15-.87.19-1.7.19-2.47,0-3.98-1.65-6.7-4.76-6.7"/>
        <path class="cls-4" d="M3.18,14.91c0-6.33,3.8-9.75,8.28-10.32,3.38-.43,7.56-.48,12.51-.48,7.7,0,9.7.1,12.55.38,6.71.67,10.61,4.8,10.61,10.75v.76c0,5.52-4.04,10.04-9.51,10.51-.43,1.43-1.09,2.85-2,4.28-2.09,3.23-6.28,7.32-13.98,7.32h-1.52c-6.28,0-11.13-2.71-14.03-7.66-2.57-4.33-2.9-9.13-2.9-15.55"/>
        <path class="cls-1" d="M6.75,14.95c0,6.13.38,10.08,2.38,13.74,2.28,4.23,6.42,5.85,11.13,5.85h1.47c6.18,0,9.18-3,10.84-5.61.81-1.33,1.52-2.81,1.9-4.66l.29-1.19h1.71c3.8,0,7.09-3.09,7.09-7.04v-.71c0-4.42-2.76-6.75-7.56-7.32-2.71-.24-4.33-.33-12.03-.33-5.18,0-8.89.05-11.7.48-3.95.57-5.52,2.81-5.52,6.8"/>
        <path class="cls-4" d="M34.76,18.24c0,.57.43,1,1.19,1,2.43,0,3.76-1.38,3.76-3.66s-1.33-3.71-3.76-3.71c-.76,0-1.19.43-1.19,1v5.37h0Z"/>
        <path class="cls-5" d="M11.41,17.95c0,2.81,1.57,5.23,3.57,7.13,1.33,1.28,3.42,2.62,4.85,3.47.43.24.86.38,1.33.38.57,0,1.05-.14,1.43-.38,1.43-.86,3.52-2.19,4.8-3.47,2.04-1.9,3.61-4.33,3.61-7.13,0-3.04-2.28-5.75-5.56-5.75-1.95,0-3.28,1-4.28,2.38-.9-1.38-2.28-2.38-4.23-2.38-3.33,0-5.52,2.71-5.52,5.75"/>
      </g>
    </g>
  </g>
</svg>